<svg xmlns="http://www.w3.org/2000/svg" viewBox="0 0 128 128" width="128" height="128"><title>Ashlar bP</title><desc>Ashlar chess set (c) ChessEver LLC. Original geometry, authored on a 128 grid.</desc><defs><clipPath id="ash-bP"><path d="M 51 69 L 77 69 L 81 74 L 81 80 L 75 84 C 76 92 77 96 78 100 C 82.0 100 82.0 102 82.0 104 L 87.0 104 L 95.0 110 L 95.0 117.0 L 33.0 117.0 L 33.0 110 L 41.0 104 L 46.0 104 C 50 98 51 92 53 84 L 47 80 L 47 74 Z"/></clipPath><clipPath id="ash-bP-s0"><circle cx="64" cy="54" r="14.0"/></clipPath></defs><g stroke-linejoin="round" stroke-linecap="round"><circle cx="64" cy="54" r="14.0" fill="#262A31" stroke="#0C0F13" stroke-width="5.0"/><g clip-path="url(#ash-bP-s0)"><path d="M 53.43 63.18 A 14.0 14.0 0 0 1 72.43 42.82 C 69.06 52.58 62.73 59.37 53.43 63.18 Z" fill="#4A515C"/></g><path d="M 51 69 L 77 69 L 81 74 L 81 80 L 75 84 C 76 92 77 96 78 100 C 82.0 100 82.0 102 82.0 104 L 87.0 104 L 95.0 110 L 95.0 117.0 L 33.0 117.0 L 33.0 110 L 41.0 104 L 46.0 104 C 50 98 51 92 53 84 L 47 80 L 47 74 Z" fill="#262A31"/><g clip-path="url(#ash-bP)"><path d="M 60 -8 C 68 18 68 44 64 62 C 61 76 62 86 67 98 C 69 106 68 112 69 124 L -8 124 L -8 -8 Z" fill="#4A515C"/></g><path d="M 51 69 L 77 69 L 81 74 L 81 80 L 75 84 C 76 92 77 96 78 100 C 82.0 100 82.0 102 82.0 104 L 87.0 104 L 95.0 110 L 95.0 117.0 L 33.0 117.0 L 33.0 110 L 41.0 104 L 46.0 104 C 50 98 51 92 53 84 L 47 80 L 47 74 Z" fill="none" stroke="#0C0F13" stroke-width="5.0"/><g clip-path="url(#ash-bP)"><path d="M 47 80 L 81 80" fill="none" stroke="#828B98" stroke-width="3.0"/><path d="M 33 110 L 95 110" fill="none" stroke="#828B98" stroke-width="3.0"/></g></g></svg>