<svg xmlns="http://www.w3.org/2000/svg" viewBox="0 0 128 128" width="128" height="128"><title>Ashlar wN</title><desc>Ashlar chess set (c) ChessEver LLC. Original geometry, authored on a 128 grid.</desc><defs><clipPath id="ash-wN"><path d="M 70 8 C 67 14 65 21 63 28 C 57 29 51 32 47 35 C 40 44 27 50 19 54 L 14 57 C 11 62 11 72 15 78 C 18 81 22 83 28 84 C 34 86 43 90 49 94 C 53 97 55 100 54 104 L 38 104 L 24 110 L 24 117 L 104 117 L 104 110 L 92 104 C 99 78 97 44 88 25 C 85 28 81 31 77 32 Z"/></clipPath></defs><g stroke-linejoin="round" stroke-linecap="round"><path d="M 70 8 C 67 14 65 21 63 28 C 57 29 51 32 47 35 C 40 44 27 50 19 54 L 14 57 C 11 62 11 72 15 78 C 18 81 22 83 28 84 C 34 86 43 90 49 94 C 53 97 55 100 54 104 L 38 104 L 24 110 L 24 117 L 104 117 L 104 110 L 92 104 C 99 78 97 44 88 25 C 85 28 81 31 77 32 Z" fill="#E8EAEE"/><g clip-path="url(#ash-wN)"><path d="M 72 -8 C 80 14 74 34 64 46 C 56 60 54 76 56 90 C 58 100 60 104 58 124 L 136 124 L 136 -8 Z M 13 71 C 17 78 24 83 32 86 C 39 89 45 93 49 100 C 43 95 37 92 30 90 C 22 87 15 80 13 71 Z" fill="#BFC6D1"/></g><path d="M 70 8 C 67 14 65 21 63 28 C 57 29 51 32 47 35 C 40 44 27 50 19 54 L 14 57 C 11 62 11 72 15 78 C 18 81 22 83 28 84 C 34 86 43 90 49 94 C 53 97 55 100 54 104 L 38 104 L 24 110 L 24 117 L 104 117 L 104 110 L 92 104 C 99 78 97 44 88 25 C 85 28 81 31 77 32 Z" fill="none" stroke="#14171B" stroke-width="5.0"/><g clip-path="url(#ash-wN)"><path d="M 69 15 L 73 27" fill="none" stroke="#14171B" stroke-width="3.0"/><path d="M 16 75 C 21 79 26 81 31 81" fill="none" stroke="#14171B" stroke-width="3.0"/><path d="M 39 54 C 47 62 51 76 48 90" fill="none" stroke="#14171B" stroke-width="3.0"/><path d="M 78 34 C 87 50 91 72 87 94" fill="none" stroke="#14171B" stroke-width="3.0"/><path d="M 85 56 L 78 58" fill="none" stroke="#14171B" stroke-width="3.0"/><path d="M 24 110 L 104 110" fill="none" stroke="#14171B" stroke-width="3.0"/><path d="M 41 43 C 46 41 51 45 50 49 C 49 53 42 53 41 47 Z" fill="#14171B"/><path d="M 15 69 C 19 69 20 73 17 74 C 14 75 13 69 15 69 Z" fill="#14171B"/></g></g></svg>