<svg width="20" height="20" viewBox="0 0 20 20" fill="none" xmlns="http://www.w3.org/2000/svg">
<path d="M18.3337 9.99984C18.3337 5.39746 14.6027 1.6665 10.0003 1.6665C5.39795 1.6665 1.66699 5.39746 1.66699 9.99984C1.66699 14.6022 5.39795 18.3332 10.0003 18.3332C10.7017 18.3332 11.667 18.4301 11.667 17.4998C11.667 16.9923 11.403 16.6008 11.1408 16.2118C10.7572 15.6428 10.3772 15.0793 10.8337 14.1665C11.3892 13.0554 12.3152 13.0554 13.7349 13.0554C14.4448 13.0554 15.2782 13.0554 16.2503 12.9165C18.0012 12.6664 18.3337 11.5902 18.3337 9.99984Z" stroke="white" stroke-width="1.5"/>
<path d="M5.83301 12.5015L5.84024 12.4995" stroke="white" stroke-width="2" stroke-linecap="round" stroke-linejoin="round"/>
<path d="M7.91699 8.3335C8.60735 8.3335 9.16699 7.77385 9.16699 7.0835C9.16699 6.39314 8.60735 5.8335 7.91699 5.8335C7.22664 5.8335 6.66699 6.39314 6.66699 7.0835C6.66699 7.77385 7.22664 8.3335 7.91699 8.3335Z" stroke="white" stroke-width="1.5"/>
<path d="M13.75 9.1665C14.4404 9.1665 15 8.60686 15 7.9165C15 7.22615 14.4404 6.6665 13.75 6.6665C13.0596 6.6665 12.5 7.22615 12.5 7.9165C12.5 8.60686 13.0596 9.1665 13.75 9.1665Z" stroke="white" stroke-width="1.5"/>
</svg>
