<svg width="58" height="58" viewBox="0 0 57.6 57.6" fill="none" xmlns="http://www.w3.org/2000/svg">
<rect width="57.6" height="57.6" rx="28.8" fill="#6B7A8A"/>
<path d="M24.4248 18.2592C26.468 18.2592 28.1424 19.9338 28.1426 21.9769L29.4551 21.9789C29.4581 20.9933 29.851 20.0489 30.5479 19.3519C31.2013 18.6985 32.0726 18.3122 32.9912 18.264L33.1758 18.2592H41.2676V32.6957H33.1738C31.9654 32.6957 31.0149 32.9998 30.2803 33.4896C29.5822 33.9551 29.1145 34.565 28.8018 35.1635C28.4932 34.5667 28.0331 33.957 27.3438 33.4916C26.6164 33.0005 25.6752 32.6957 24.4785 32.6957H16.3311V18.2592H24.4248Z" fill="white" fill-opacity="0.16" stroke="white" stroke-width="1.31243"/>
<path d="M28.7991 21.9772C28.7991 19.5716 26.8305 17.6029 24.4248 17.6029H15.6748V33.3521H24.4786C28.7991 33.3521 28.7991 37.7277 28.7991 37.7277M28.7991 21.9772C28.7991 19.5702 30.7678 17.6029 33.1735 17.6029H41.9234V33.3521H33.1735C28.7991 33.3521 28.7991 37.7277 28.7991 37.7277M28.7991 21.9772V37.7277V21.9772ZM31.2599 39.2029C31.5338 38.6358 31.9604 38.1562 32.4918 37.8182C33.0231 37.4802 33.6383 37.297 34.268 37.2894H40.611M26.3383 39.2029C26.0695 38.6319 25.6441 38.149 25.1116 37.8102C24.5791 37.4715 23.9613 37.2909 23.3302 37.2894H16.9872" fill="white" fill-opacity="0.16"/>
<path d="M28.7991 21.9772C28.7991 19.5716 26.8305 17.6029 24.4248 17.6029H15.6748V33.3521H24.4786C28.7991 33.3521 28.7991 37.7277 28.7991 37.7277M28.7991 37.7277V21.9772C28.7991 19.5702 30.7678 17.6029 33.1735 17.6029H41.9234V33.3521H33.1735C28.7991 33.3521 28.7991 37.7277 28.7991 37.7277ZM31.2599 39.2029C31.5338 38.6358 31.9604 38.1562 32.4918 37.8182C33.0231 37.4802 33.6383 37.297 34.268 37.2894H40.611M26.3383 39.2029C26.0695 38.6319 25.6441 38.149 25.1116 37.8102C24.5791 37.4715 23.9613 37.2909 23.3302 37.2894H16.9872" stroke="white" stroke-width="1.96865" stroke-miterlimit="10" stroke-linecap="round" stroke-linejoin="round"/>
</svg>
