<svg width="25" height="24" viewBox="0 0 25 24" fill="none" xmlns="http://www.w3.org/2000/svg">
<path d="M7.47335 12.5306L14.9734 20.0306C15.043 20.1002 15.1258 20.1555 15.2168 20.1932C15.3079 20.2309 15.4054 20.2503 15.504 20.2503C15.6025 20.2503 15.7001 20.2309 15.7911 20.1932C15.8822 20.1555 15.9649 20.1002 16.0346 20.0306C16.1043 19.9609 16.1596 19.8781 16.1973 19.7871C16.235 19.6961 16.2544 19.5985 16.2544 19.4999C16.2544 19.4014 16.235 19.3038 16.1973 19.2128C16.1596 19.1217 16.1043 19.039 16.0346 18.9693L9.06429 11.9999L16.0346 5.03055C16.1753 4.88982 16.2544 4.69895 16.2544 4.49993C16.2544 4.30091 16.1753 4.11003 16.0346 3.9693C15.8939 3.82857 15.703 3.74951 15.504 3.74951C15.305 3.74951 15.1141 3.82857 14.9734 3.9693L7.47335 11.4693C7.40362 11.539 7.3483 11.6217 7.31056 11.7127C7.27281 11.8038 7.25339 11.9014 7.25339 11.9999C7.25339 12.0985 7.27281 12.1961 7.31056 12.2871C7.3483 12.3782 7.40362 12.4609 7.47335 12.5306Z" fill="#F2F2F2"/>
</svg>
