<svg width="16" height="18" viewBox="0 0 16 18" fill="none" xmlns="http://www.w3.org/2000/svg">
<path d="M14.25 0.5625H3.625C2.87908 0.5625 2.16371 0.858816 1.63626 1.38626C1.10882 1.91371 0.8125 2.62908 0.8125 3.375V16.5C0.8125 16.7486 0.911272 16.9871 1.08709 17.1629C1.2629 17.3387 1.50136 17.4375 1.75 17.4375H13C13.2486 17.4375 13.4871 17.3387 13.6629 17.1629C13.8387 16.9871 13.9375 16.7486 13.9375 16.5C13.9375 16.2514 13.8387 16.0129 13.6629 15.8371C13.4871 15.6613 13.2486 15.5625 13 15.5625H2.6875V15.25C2.6875 15.0014 2.78627 14.7629 2.96209 14.5871C3.1379 14.4113 3.37636 14.3125 3.625 14.3125H14.25C14.4986 14.3125 14.7371 14.2137 14.9129 14.0379C15.0887 13.8621 15.1875 13.6236 15.1875 13.375V1.5C15.1875 1.25136 15.0887 1.0129 14.9129 0.837087C14.7371 0.661272 14.4986 0.5625 14.25 0.5625ZM13.3125 12.4375H3.625C3.30558 12.4369 2.98844 12.4913 2.6875 12.5984V3.375C2.6875 3.12636 2.78627 2.8879 2.96209 2.71209C3.1379 2.53627 3.37636 2.4375 3.625 2.4375H13.3125V12.4375Z" fill="#32D2EE"/>
</svg>
