<svg width="25" height="24" viewBox="0 0 25 24" fill="none" xmlns="http://www.w3.org/2000/svg">
<path d="M17.5345 12.5306L10.0345 20.0306C9.96478 20.1002 9.88205 20.1555 9.79101 20.1932C9.69996 20.2309 9.60238 20.2503 9.50383 20.2503C9.40529 20.2503 9.30771 20.2309 9.21666 20.1932C9.12562 20.1555 9.04289 20.1002 8.97321 20.0306C8.90353 19.9609 8.84825 19.8781 8.81054 19.7871C8.77283 19.6961 8.75342 19.5985 8.75342 19.4999C8.75342 19.4014 8.77283 19.3038 8.81054 19.2128C8.84825 19.1217 8.90353 19.039 8.97321 18.9693L15.9435 11.9999L8.97321 5.03055C8.83248 4.88982 8.75342 4.69895 8.75342 4.49993C8.75342 4.30091 8.83248 4.11003 8.97321 3.9693C9.11394 3.82857 9.30481 3.74951 9.50383 3.74951C9.70286 3.74951 9.89373 3.82857 10.0345 3.9693L17.5345 11.4693C17.6042 11.539 17.6595 11.6217 17.6973 11.7127C17.735 11.8038 17.7544 11.9014 17.7544 11.9999C17.7544 12.0985 17.735 12.1961 17.6973 12.2871C17.6595 12.3782 17.6042 12.4609 17.5345 12.5306Z" fill="#F2F2F2"/>
</svg>
