<svg width="11" height="18" viewBox="0 0 11 18" fill="none" xmlns="http://www.w3.org/2000/svg">
<path d="M9.7979 9.7959L2.2979 17.2959C2.08655 17.5072 1.79991 17.626 1.50102 17.626C1.20213 17.626 0.91549 17.5072 0.704145 17.2959C0.492801 17.0846 0.374069 16.7979 0.374069 16.499C0.374069 16.2001 0.492801 15.9135 0.704145 15.7021L7.40821 8.99996L0.706021 2.2959C0.601374 2.19125 0.518363 2.06702 0.461728 1.93029C0.405093 1.79356 0.375944 1.64702 0.375944 1.49902C0.375944 1.35103 0.405093 1.20448 0.461728 1.06776C0.518363 0.931028 0.601374 0.806794 0.706021 0.702147C0.810668 0.5975 0.934902 0.514489 1.07163 0.457855C1.20836 0.40122 1.3549 0.37207 1.5029 0.37207C1.65089 0.37207 1.79743 0.40122 1.93416 0.457855C2.07089 0.514489 2.19512 0.5975 2.29977 0.702147L9.79977 8.20215C9.90453 8.30679 9.9876 8.43108 10.0442 8.56789C10.1008 8.7047 10.1299 8.85135 10.1297 8.99941C10.1295 9.14748 10.1001 9.29405 10.0432 9.43073C9.98626 9.56741 9.9029 9.6915 9.7979 9.7959Z" fill="white"/>
</svg>
