<svg width="23" height="22" viewBox="0 0 23 22" fill="none" xmlns="http://www.w3.org/2000/svg">
<path d="M5.50391 8H4.00391C3.34087 8 2.70498 7.73661 2.23614 7.26777C1.7673 6.79893 1.50391 6.16304 1.50391 5.5C1.50391 4.83696 1.7673 4.20107 2.23614 3.73223C2.70498 3.26339 3.34087 3 4.00391 3H5.50391M5.50391 8V1H17.5039V8M5.50391 8C5.50391 9.5913 6.13605 11.1174 7.26127 12.2426C8.38648 13.3679 9.91261 14 11.5039 14C13.0952 14 14.6213 13.3679 15.7465 12.2426C16.8718 11.1174 17.5039 9.5913 17.5039 8M17.5039 8H19.0039C19.6669 8 20.3028 7.73661 20.7717 7.26777C21.2405 6.79893 21.5039 6.16304 21.5039 5.5C21.5039 4.83696 21.2405 4.20107 20.7717 3.73223C20.3028 3.26339 19.6669 3 19.0039 3H17.5039M3.50391 21H19.5039M9.50391 13.6599V15.9999C9.50391 16.5499 9.03391 16.9799 8.53391 17.2099C7.35391 17.7499 6.50391 19.2399 6.50391 20.9999M13.5039 13.6599V15.9999C13.5039 16.5499 13.9739 16.9799 14.4739 17.2099C15.6539 17.7499 16.5039 19.2399 16.5039 20.9999" stroke="white" stroke-opacity="0.4" stroke-width="2" stroke-linecap="round" stroke-linejoin="round"/>
</svg>
